HIERARCHY
ROOT Hips
{
	OFFSET 0.000000 89.005402 0.000000
	CHANNELS 6 Xposition Yposition Zposition Xrotation Yrotation Zrotation
	JOINT Spine
	{
		OFFSET 0.116900 10.681000 0.373400
		CHANNELS 3 Xrotation Yrotation Zrotation
		JOINT Spine1
		{
			OFFSET 0.000000 13.840401 0.053500
			CHANNELS 3 Xrotation Yrotation Zrotation
			JOINT Spine2
			{
				OFFSET 0.000000 14.712700 -0.366200
				CHANNELS 3 Xrotation Yrotation Zrotation
				JOINT Neck
				{
					OFFSET 0.000000 35.415497 -3.314200
					CHANNELS 3 Xrotation Yrotation Zrotation
					JOINT Head
					{
						OFFSET 0.000000 16.899200 1.218300
						CHANNELS 3 Xrotation Yrotation Zrotation
						JOINT HeadTop_End
						{
							OFFSET 0.000000 22.206207 2.192500
							CHANNELS 3 Xrotation Yrotation Zrotation
							End Site
							{
								OFFSET 0.000000 22.314178 0.000000
							}
						}
					}
				}
				JOINT LeftShoulder
				{
					OFFSET 12.896400 26.716293 -4.548400
					CHANNELS 3 Xrotation Yrotation Zrotation
					JOINT LeftArm
					{
						OFFSET 19.027000 -4.857010 -1.718400
						CHANNELS 3 Xrotation Yrotation Zrotation
						JOINT LeftForeArm
						{
							OFFSET 24.179897 0.000000 0.000000
							CHANNELS 3 Xrotation Yrotation Zrotation
							JOINT LeftHand
							{
								OFFSET 27.156403 0.000000 0.000000
								CHANNELS 3 Xrotation Yrotation Zrotation
								JOINT LeftHandIndex1
								{
									OFFSET 16.441200 0.000000 0.000000
									CHANNELS 3 Xrotation Yrotation Zrotation
									JOINT LeftHandIndex2
									{
										OFFSET 4.821899 0.000000 0.000000
										CHANNELS 3 Xrotation Yrotation Zrotation
										JOINT LeftHandIndex3
										{
											OFFSET 6.386497 0.000000 0.000000
											CHANNELS 3 Xrotation Yrotation Zrotation
											JOINT LeftHandIndex4
											{
												OFFSET 5.188988 0.000000 0.000000
												CHANNELS 3 Xrotation Yrotation Zrotation
												End Site
												{
													OFFSET -0.178703 5.185913 0.000177
												}
											}
										}
									}
								}
								JOINT LeftHandThumb1
								{
									OFFSET 6.534897 -5.032593 5.900300
									CHANNELS 3 Xrotation Yrotation Zrotation
									JOINT LeftHandThumb2
									{
										OFFSET 3.818176 -2.204422 2.204423
										CHANNELS 3 Xrotation Yrotation Zrotation
										JOINT LeftHandThumb3
										{
											OFFSET 3.252098 -1.877594 1.877601
											CHANNELS 3 Xrotation Yrotation Zrotation
											JOINT LeftHandThumb4
											{
												OFFSET 5.251778 -3.032120 3.032117
												CHANNELS 3 Xrotation Yrotation Zrotation
												End Site
												{
													OFFSET 0.000023 6.780014 0.000000
												}
											}
										}
									}
								}
							}
						}
					}
				}
				JOINT RightShoulder
				{
					OFFSET -12.896300 26.716293 -4.548400
					CHANNELS 3 Xrotation Yrotation Zrotation
					JOINT RightArm
					{
						OFFSET -19.027000 -4.857010 -1.718400
						CHANNELS 3 Xrotation Yrotation Zrotation
						JOINT RightForeArm
						{
							OFFSET -24.179897 0.000000 0.000000
							CHANNELS 3 Xrotation Yrotation Zrotation
							JOINT RightHand
							{
								OFFSET -27.156403 0.000000 0.000000
								CHANNELS 3 Xrotation Yrotation Zrotation
								JOINT RightHandThumb1
								{
									OFFSET -6.591202 -4.852203 5.988100
									CHANNELS 3 Xrotation Yrotation Zrotation
									JOINT RightHandThumb2
									{
										OFFSET -3.818176 -2.204422 2.204423
										CHANNELS 3 Xrotation Yrotation Zrotation
										JOINT RightHandThumb3
										{
											OFFSET -3.252098 -1.877594 1.877601
											CHANNELS 3 Xrotation Yrotation Zrotation
											JOINT RightHandThumb4
											{
												OFFSET -5.251778 -3.032120 3.032117
												CHANNELS 3 Xrotation Yrotation Zrotation
												End Site
												{
													OFFSET -0.000023 6.780014 0.000000
												}
											}
										}
									}
								}
								JOINT RightHandIndex1
								{
									OFFSET -16.029404 0.000000 0.000000
									CHANNELS 3 Xrotation Yrotation Zrotation
									JOINT RightHandIndex2
									{
										OFFSET -5.213303 0.000000 0.000000
										CHANNELS 3 Xrotation Yrotation Zrotation
										JOINT RightHandIndex3
										{
											OFFSET -6.386528 0.000000 0.000000
											CHANNELS 3 Xrotation Yrotation Zrotation
											JOINT RightHandIndex4
											{
												OFFSET -5.189026 0.000000 0.000000
												CHANNELS 3 Xrotation Yrotation Zrotation
												End Site
												{
													OFFSET 0.236702 5.183624 0.001972
												}
											}
										}
									}
								}
							}
						}
					}
				}
			}
		}
	}
	JOINT LeftUpLeg
	{
		OFFSET 14.073000 -7.904099 -1.463000
		CHANNELS 3 Xrotation Yrotation Zrotation
		JOINT LeftLeg
		{
			OFFSET -0.109806 -34.073280 4.093200
			CHANNELS 3 Xrotation Yrotation Zrotation
			JOINT LeftFoot
			{
				OFFSET 0.109806 -29.899420 -6.319000
				CHANNELS 3 Xrotation Yrotation Zrotation
				JOINT LeftToeBase
				{
					OFFSET 1.551100 -14.988700 20.535801
					CHANNELS 3 Xrotation Yrotation Zrotation
					JOINT LeftToe_End
					{
						OFFSET 0.221200 0.570800 13.248301
						CHANNELS 3 Xrotation Yrotation Zrotation
						End Site
						{
							OFFSET 0.000000 13.262435 0.000000
						}
					}
				}
			}
		}
	}
	JOINT RightUpLeg
	{
		OFFSET -13.839300 -7.904099 -1.463000
		CHANNELS 3 Xrotation Yrotation Zrotation
		JOINT RightLeg
		{
			OFFSET 0.109694 -34.073219 4.093300
			CHANNELS 3 Xrotation Yrotation Zrotation
			JOINT RightFoot
			{
				OFFSET -0.109694 -29.899384 -6.319200
				CHANNELS 3 Xrotation Yrotation Zrotation
				JOINT RightToeBase
				{
					OFFSET -1.551100 -14.988700 20.535801
					CHANNELS 3 Xrotation Yrotation Zrotation
					JOINT RightToe_End
					{
						OFFSET -0.221200 0.570900 13.248299
						CHANNELS 3 Xrotation Yrotation Zrotation
						End Site
						{
							OFFSET 0.000000 13.262440 0.000000
						}
					}
				}
			}
		}
	}
}
MOTION
Frames: 5
Frame Time: 0.033333
108.534340 16.148911 41.973858 -21.611446 19.766241 -97.247919 16.161320 0.952005 14.751643 6.853760 -0.230829 5.459767 6.611969 0.062836 6.837896 9.428845 2.506300 9.564702 6.736261 17.181870 16.851361 0.000001 0.000001 0.000000 -19.957471 -20.429736 9.564870 -40.069428 8.271684 -81.637201 0.000031 -43.171952 0.000033 43.501560 -4.288333 32.573128 2.501407 -18.507487 5.865016 0.212892 1.566504 -15.477697 0.015430 0.425370 -4.154707 0.000001 -0.000000 0.000000 -28.367729 -14.206047 21.340938 17.225419 12.494706 -8.716656 1.632001 -5.570943 0.776523 -0.000000 0.000000 -0.000000 -28.021420 42.574249 -18.978700 -16.996685 27.689597 58.488091 -0.000016 28.913946 0.000013 30.835487 22.059274 -23.871617 -3.387727 8.360521 -1.296796 2.666970 -19.128566 -2.868029 -5.564525 -7.323816 -14.704079 -0.000001 0.000000 0.000001 0.885076 5.456718 -6.086210 0.098854 -0.955463 11.813554 0.033445 -0.557826 6.864174 -0.000001 -0.000001 -0.000000 -13.415082 14.918166 13.312338 55.406413 -1.110339 3.471583 0.070588 6.778330 -15.932512 0.785258 -0.002211 -0.451250 0.000000 -0.000000 -0.000000 -35.007855 32.184189 -37.661106 109.204725 3.332671 6.086635 6.200397 -6.917758 10.126190 2.611671 -0.000023 -0.000025 -0.000001 0.000001 0.000003 
108.681511 16.077377 42.503456 -20.665724 19.178439 -95.521705 16.852437 1.646976 14.440294 7.294560 0.555241 5.596267 7.043325 0.891009 6.985561 9.395531 2.365292 9.572240 7.701128 16.936006 16.212916 0.000000 0.000000 0.000000 -17.443198 -19.358737 5.651735 -39.098376 -0.437789 -80.419317 -0.000017 -41.467404 -0.000005 36.681524 -4.615783 24.009857 2.147378 -17.637763 5.149430 0.187206 1.470601 -14.508379 0.009430 0.332683 -3.248184 -0.000001 0.000001 -0.000001 -27.946269 -14.327669 21.215044 17.107626 12.433833 -8.006618 1.221219 -5.211711 1.068765 -0.000000 -0.000000 0.000001 -30.821837 41.367772 -13.569069 -4.240617 21.847364 61.047882 0.000012 37.030212 -0.000008 33.781439 11.782129 -13.131113 -2.091210 8.043471 -0.343440 2.544979 -19.137379 -2.417431 -5.979150 -7.104904 -14.594776 -0.000001 0.000000 0.000001 0.954563 5.689878 -6.294178 0.094509 -0.934441 11.550068 0.031008 -0.537126 6.608191 0.000001 -0.000000 -0.000001 -16.639019 18.206971 11.528137 55.116819 -1.978708 7.796607 0.193626 5.092694 -18.200267 2.610674 -0.000003 -0.000030 -0.000001 -0.000000 0.000001 -21.063960 24.196406 -34.608138 99.310138 0.679421 4.990944 5.987261 -4.448801 12.990902 1.424840 0.000011 -0.000014 0.000003 -0.000001 0.000001 
108.234291 16.420296 43.120361 -20.042773 17.385384 -92.761188 17.504573 3.096448 13.404900 7.769758 1.654130 5.370890 7.514660 1.971650 6.775352 8.675333 2.154866 9.262314 8.858387 15.342275 17.367674 -0.000002 0.000002 0.000002 -15.818209 -18.631441 2.797551 -37.737929 -9.238740 -80.489135 0.000002 -42.222652 0.000015 35.592594 -4.102537 19.716026 1.649739 -16.389722 4.036775 0.152470 1.329166 -13.086268 0.004010 0.216973 -2.117805 -0.000000 -0.000001 -0.000001 -27.138906 -14.322716 20.887861 16.871588 12.336101 -7.010621 0.647518 -4.714348 1.464092 0.000003 0.000002 0.000000 -32.736619 38.255415 -9.064756 2.708152 13.356502 67.350836 0.000015 35.086228 -0.000019 39.396039 1.926750 -7.908516 -1.148103 7.737991 0.174866 2.476210 -19.240838 -1.845525 -6.410036 -7.003016 -14.541536 0.000001 -0.000001 0.000000 1.003899 5.813041 -6.341932 0.091220 -0.918210 11.346676 0.029046 -0.519660 6.392549 0.000001 0.000001 -0.000001 -22.016001 20.799181 7.953598 57.299714 -3.540754 9.954353 2.576247 2.280622 -15.743367 1.861933 -0.000010 -0.000014 0.000001 -0.000000 -0.000000 -11.325520 17.390288 -28.476534 87.512605 -2.549022 1.764784 4.535073 1.482816 14.947360 0.642874 0.000002 0.000011 -0.000002 0.000002 0.000001 
107.534866 16.204567 44.005028 -22.037310 11.330392 -88.297243 17.295217 5.107663 11.576076 7.521027 2.977031 4.839869 7.291198 3.262831 6.240869 8.132414 1.996210 8.478724 8.687045 13.055406 18.215116 -0.000003 -0.000003 -0.000002 -14.982831 -19.190207 2.932952 -35.243045 -11.974618 -80.833527 0.000008 -46.443726 0.000015 44.607805 -2.399406 19.815808 1.099061 -14.856532 2.647022 0.114476 1.153725 -11.333774 0.000586 0.082212 -0.802224 0.000000 -0.000004 -0.000000 -26.037731 -14.235171 20.404055 16.548104 12.203343 -5.809693 -0.026871 -4.104776 1.963390 -0.000000 -0.000000 0.000001 -33.952836 35.006075 -5.465140 6.997955 3.726992 73.381934 0.000002 31.297539 -0.000001 41.733470 -3.904513 -6.366036 -0.516773 7.428824 0.304110 2.455177 -19.424062 -1.174533 -6.851189 -7.003829 -14.539448 -0.000000 0.000001 -0.000000 1.033660 5.835821 -6.243943 0.088829 -0.906257 11.196836 0.027451 -0.505374 6.216215 0.000001 0.000001 -0.000000 -31.073580 23.361803 2.571778 60.790050 -4.712224 9.756229 3.226424 3.593557 -11.100228 2.402200 0.000003 0.000003 0.000001 -0.000001 -0.000000 -9.647191 16.121436 -23.495412 77.334011 -1.651069 -1.911177 -1.696397 0.696887 16.610470 1.226287 0.000021 0.000017 0.000001 0.000002 0.000000 
106.697205 15.488037 45.112118 -26.272283 3.200362 -84.253956 17.496445 6.695447 10.588525 7.610099 3.736424 4.367906 7.417768 3.981752 5.754974 8.542016 2.244922 6.713462 9.516925 12.430567 16.580452 0.000001 0.000001 0.000000 -15.054420 -18.004415 2.494659 -30.754477 -10.184987 -77.544633 -0.000025 -56.664390 -0.000035 45.373056 3.694542 11.083066 0.586438 -13.136236 1.096178 0.078397 0.956168 -9.373234 0.000374 -0.067619 0.659805 -0.000001 -0.000002 0.000001 -24.735839 -14.106001 19.807960 16.163622 12.040162 -4.484297 -0.793438 -3.387474 2.565358 0.000000 0.000001 0.000000 -34.391970 34.332776 -4.392659 7.793390 -3.964826 79.007018 0.000003 31.048650 -0.000003 43.985308 -7.122951 -7.173765 -0.155985 7.110548 0.091619 2.476361 -19.671858 -0.426468 -7.296624 -7.093047 -14.583552 -0.000000 0.000003 0.000001 1.046022 5.767683 -6.014844 0.087217 -0.898026 11.093977 0.026235 -0.494212 6.078175 -0.000001 -0.000000 -0.000002 -42.648029 28.546714 0.921076 64.601753 -4.331728 9.436298 2.719470 5.701484 -7.497055 3.176849 -0.000013 -0.000030 0.000002 -0.000001 -0.000000 -15.010640 20.785471 -21.692022 70.719055 -4.545022 -1.673352 -3.283286 0.533622 15.470411 0.917499 0.000003 -0.000007 -0.000000 0.000001 0.000002 
